<svg width="77" height="88" viewBox="0 0 77 88" fill="none" xmlns="http://www.w3.org/2000/svg">
<path fill-rule="evenodd" clip-rule="evenodd" d="M35.6529 0.197981C27.4758 1.72149 21.796 9.35177 22.9179 17.3068C23.4784 21.2815 25.3016 24.5999 28.33 27.1575C28.8636 27.6079 29.3979 28.1497 29.5176 28.3614C29.6391 28.5761 29.738 29.3614 29.7415 30.1378C29.749 31.8486 30.0471 32.8685 30.8678 33.9907C31.4155 34.7398 31.4985 34.9821 31.5003 35.8412C31.5062 38.6978 33.036 41.071 35.6557 42.2878L36.7498 42.7961V45.9581V49.1202L25.025 49.1667L13.3004 49.2133L12.815 49.6897L12.3298 50.1663L12.276 53.6785L12.2224 57.1906L11.5758 57.3963C11.2203 57.5093 10.5354 57.794 10.054 58.0288C5.06571 60.4612 3.70134 67.1251 7.35612 71.2048C7.75647 71.6516 8.05458 72.0446 8.0187 72.0781C7.98281 72.1117 7.44137 72.4304 6.81555 72.7866C5.29643 73.651 2.86091 76.0651 1.94958 77.6094C0.582756 79.9256 -0.113958 82.8014 0.0152315 85.5945C0.0715989 86.8146 0.129892 87.0109 0.56245 87.4359L1.04665 87.9116L38.4126 87.9558L75.7786 88L76.3496 87.4986C76.8903 87.0239 76.924 86.9244 76.9845 85.6131C77.1146 82.8012 76.4214 79.9315 75.051 77.6094C74.1397 76.0651 71.7042 73.651 70.1851 72.7866C69.5593 72.4304 69.0178 72.1117 68.9819 72.0781C68.946 72.0446 69.2442 71.6516 69.6445 71.2048C73.2993 67.1251 71.9349 60.4612 66.9466 58.0288C66.4652 57.794 65.7804 57.5093 65.4248 57.3963L64.7782 57.1906L64.7246 53.6605L64.6709 50.1303L64.0992 49.6288L63.5274 49.1273H51.8891H40.2509V45.9616V42.7961L41.3449 42.2878C43.9646 41.071 45.4944 38.6978 45.5004 35.8412C45.5021 34.9821 45.5851 34.7398 46.1328 33.9907C46.9535 32.8685 47.2516 31.8486 47.2591 30.1378C47.2665 28.4999 47.4039 28.2054 48.6151 27.229C51.0905 25.2341 53.0422 22.1322 53.8473 18.9132C54.3101 17.0631 54.2672 13.4858 53.7603 11.6444C52.2168 6.03885 48.0635 1.93579 42.4338 0.454938C40.5929 -0.0292207 37.5015 -0.14652 35.6529 0.197981ZM40.9001 3.64815C43.5055 4.17686 45.4568 5.2494 47.3479 7.19206C50.1066 10.026 51.2742 13.9808 50.4765 17.7889C49.9254 20.4197 48.7215 22.434 46.5006 24.4419L45.0689 25.7363H42.6694H40.2698L40.2165 21.938L40.1633 18.1397L39.5704 17.6196C39.0699 17.1805 38.8786 17.1147 38.345 17.1981C37.9477 17.26 37.5337 17.4918 37.2312 17.8214L36.7498 18.3461V22.0412V25.7363H34.3102H31.8707L30.1306 24.0594C28.6562 22.6382 28.2807 22.1594 27.6695 20.9205C26.6439 18.8411 26.3363 17.5677 26.34 15.4167C26.3439 13.1764 26.584 12.164 27.605 10.085C28.2703 8.73002 28.6497 8.21387 29.8278 7.061C32.9173 4.03806 36.8492 2.82603 40.9001 3.64815ZM37.868 10.4255C37.3169 10.6443 36.7498 11.4415 36.7498 11.9974C36.7498 12.6858 37.5543 13.5121 38.345 13.6354C38.8781 13.7187 39.0699 13.653 39.5664 13.2171C40.0581 12.7854 40.1554 12.5808 40.1554 11.9769C40.1554 11.3784 40.0574 11.1678 39.5876 10.7554C39.0125 10.2504 38.5383 10.1594 37.868 10.4255ZM43.7211 30.4002C43.6562 31.5271 43.6051 31.6644 43.0759 32.1289L42.5012 32.6335L38.3855 32.5818L34.2696 32.53L33.7592 31.9683C33.3065 31.4702 33.2487 31.2803 33.2487 30.2913V29.1761H38.5201H43.7915L43.7211 30.4002ZM41.92 36.6862C41.7612 37.5173 41.142 38.3891 40.3111 38.9513C39.7526 39.3292 39.4447 39.4066 38.5003 39.4066C37.5559 39.4066 37.248 39.3292 36.6896 38.9513C35.8586 38.3891 35.2394 37.5173 35.0806 36.6862L34.9602 36.0558H38.5003H42.0404L41.92 36.6862ZM36.7498 54.8756V57.1843L36.0933 57.3931C35.7324 57.508 35.043 57.794 34.5616 58.0288C29.5733 60.4612 28.2089 67.1251 31.8637 71.2048C32.264 71.6516 32.5621 72.0396 32.5262 72.067C32.4904 72.0945 31.9489 72.4152 31.3231 72.78C29.8961 73.6118 27.8035 75.5617 26.9329 76.8707L26.2689 77.8693L25.6529 76.9705C24.7274 75.6201 22.9876 73.94 21.5637 73.0215C20.8654 72.5712 20.197 72.171 20.0782 72.132C19.9444 72.0883 20.1468 71.7434 20.6096 71.2268C24.2845 67.1249 22.9336 60.468 17.9315 58.0288C17.4501 57.794 16.7609 57.508 16.3998 57.3931L15.7433 57.1843V54.8756V52.5671H26.2465H36.7498V54.8756ZM61.2573 54.8756V57.1843L60.6009 57.3931C60.2399 57.508 59.5505 57.794 59.0691 58.0288C54.0808 60.4612 52.7164 67.1251 56.3712 71.2048C56.7716 71.6516 57.0697 72.0396 57.0338 72.067C56.9979 72.0945 56.4565 72.4152 55.8307 72.78C54.4036 73.6118 52.311 75.5617 51.4405 76.8707L50.7765 77.8693L50.1605 76.9705C49.235 75.6201 47.4951 73.94 46.0712 73.0215C45.3729 72.5712 44.7046 72.171 44.5857 72.132C44.452 72.0883 44.6543 71.7434 45.1172 71.2268C48.7921 67.1249 47.4412 60.468 42.439 58.0288C41.9576 57.794 41.2684 57.508 40.9073 57.3931L40.2509 57.1843V54.8756V52.5671H50.7541H61.2573V54.8756ZM16.1302 60.955C17.1528 61.3995 18.2986 62.5224 18.777 63.549C19.2946 64.6598 19.2946 66.6174 18.777 67.7281C18.3007 68.7503 17.1598 69.8711 16.1195 70.3391C14.989 70.8477 12.9965 70.8477 11.866 70.3391C9.61729 69.3276 8.34132 66.7894 8.91025 64.4592C9.66771 61.3568 13.1574 59.663 16.1302 60.955ZM40.6377 60.955C41.6604 61.3995 42.8061 62.5224 43.2845 63.549C43.8022 64.6598 43.8022 66.6174 43.2845 67.7281C42.8082 68.7503 41.6674 69.8711 40.627 70.3391C39.4965 70.8477 37.5041 70.8477 36.3736 70.3391C34.1248 69.3276 32.8489 66.7894 33.4178 64.4592C34.1753 61.3568 37.665 59.663 40.6377 60.955ZM65.1453 60.955C66.1679 61.3995 67.3137 62.5224 67.7921 63.549C68.3097 64.6598 68.3097 66.6174 67.7921 67.7281C67.3158 68.7503 66.1749 69.8711 65.1346 70.3391C64.0041 70.8477 62.0116 70.8477 60.8811 70.3391C58.6324 69.3276 57.3564 66.7894 57.9253 64.4592C58.6828 61.3568 62.1725 59.663 65.1453 60.955ZM16.1809 74.4969C20.1211 75.3097 23.4054 78.5366 24.2327 82.4078C24.3742 83.07 24.4913 83.8247 24.493 84.0848L24.496 84.5577H13.9928H3.48953L3.4925 84.0848C3.49898 83.0838 4.0371 81.1499 4.65293 79.9139C5.53801 78.1379 7.45695 76.2522 9.26631 75.3802C11.5164 74.2958 13.795 74.0048 16.1809 74.4969ZM40.6885 74.4969C44.6286 75.3097 47.913 78.5366 48.7403 82.4078C48.8817 83.07 48.9988 83.8247 49.0006 84.0848L49.0035 84.5577H38.5003H27.9971L28.0001 84.0848C28.0065 83.0838 28.5446 81.1499 29.1605 79.9139C30.0456 78.1379 31.9645 76.2522 33.7739 75.3802C36.024 74.2958 38.3025 74.0048 40.6885 74.4969ZM65.196 74.4969C69.1362 75.3097 72.4205 78.5366 73.2478 82.4078C73.3893 83.07 73.5064 83.8247 73.5081 84.0848L73.5111 84.5577H63.0079H52.5046L52.5076 84.0848C52.5141 83.0838 53.0522 81.1499 53.668 79.9139C54.5531 78.1379 56.472 76.2522 58.2814 75.3802C60.5316 74.2958 62.8101 74.0048 65.196 74.4969Z" fill="#D852D3"/>
</svg>
