<svg width="89" height="89" viewBox="0 0 89 89" fill="none" xmlns="http://www.w3.org/2000/svg">
<path fill-rule="evenodd" clip-rule="evenodd" d="M63.112 0.289087C61.2813 0.885371 59.9665 2.04577 59.1451 3.79045C58.7127 4.70861 58.6914 4.90303 58.6079 8.6595L58.521 12.5721L37.6166 12.6163L16.7122 12.6605V11.5208C16.7122 10.0682 16.4489 9.57801 15.2944 8.88225C13.783 7.97157 12.4731 7.58831 10.5409 7.49197C7.47223 7.33877 5.14311 8.23345 2.97583 10.3977C1.48984 11.8816 0.679216 13.3308 0.279555 15.2176C-0.0891616 16.9583 -0.0950722 71.8039 0.273297 73.5421C1.04689 77.1929 4.11849 80.2896 7.9263 81.2578C8.83028 81.4877 12.4592 81.5213 36.3749 81.5213H63.7873L64.9502 84.434C66.8635 89.2272 66.6401 88.9991 69.4208 88.998C72.0604 88.9972 71.9634 89.0907 73.6128 84.9548L74.9712 81.5486L79.0888 81.4915L83.2064 81.4343L84.3865 80.8752C86.6224 79.8159 88.3779 77.6561 88.8479 75.3861C88.9793 74.7519 89.0221 66.0979 88.9896 46.6554L88.9432 18.8323L88.5401 17.8336C87.3355 14.8501 84.2597 12.6591 81.2759 12.6591H80.3381L80.3346 9.74634C80.3327 8.14425 80.2544 6.3027 80.1606 5.65373C79.8369 3.41414 78.5219 1.5879 76.5322 0.613922L75.3836 0.0517211L69.7338 0.0120732C64.6738 -0.0234013 63.9824 0.00546521 63.112 0.289087ZM75.0531 3.77393C76.4185 4.39421 76.8499 5.51114 76.8571 8.44213L76.8612 10.2245H69.4601H62.059L62.1153 7.74655C62.18 4.90233 62.3519 4.47264 63.691 3.80958C64.3927 3.46231 64.6925 3.44318 69.3861 3.44666C73.8418 3.44997 74.4123 3.48283 75.0531 3.77393ZM12.4966 11.3474L13.2354 11.6534V36.6087V61.5639L12.7573 61.4446C11.7395 61.1906 8.8268 61.1342 7.86163 61.35C6.65048 61.6206 5.31399 62.2047 4.28451 62.9132L3.49422 63.4571L3.54081 39.5797L3.58723 15.7022L3.97472 14.8623C4.769 13.1408 6.16338 11.859 7.93326 11.2234C9.03106 10.8292 11.4016 10.8935 12.4966 11.3474ZM76.7743 15.7022V17.6151L69.4295 17.6604L62.0847 17.7058V15.7022V13.6986L69.4295 13.744L76.7743 13.7894V15.7022ZM58.6079 45.2003V74.2636L59.7944 75.9361C60.447 76.856 61.0389 77.7074 61.1098 77.8283C61.2135 78.0048 56.081 78.0389 34.9337 78.0022L8.62862 77.9564L7.59774 77.4735C4.77335 76.1504 3.33916 73.7569 3.54777 70.7144C3.71431 68.2839 4.98439 66.3599 7.11394 65.312C8.20375 64.7757 8.38855 64.7405 10.1035 64.7405C11.9224 64.7405 11.9386 64.7441 13.3079 65.4795C14.0648 65.8859 14.8746 66.2186 15.1072 66.2186C15.3564 66.2186 15.773 65.9756 16.1212 65.6273L16.7122 65.0361V54.0272V43.0183L17.4511 43.7293C19.194 45.407 21.2058 46.5855 23.4995 47.2728C24.2124 47.4863 24.8209 47.6816 24.8513 47.7064C24.8819 47.7315 24.1299 48.8354 23.1805 50.1598C22.231 51.4843 21.4082 52.7562 21.3522 52.9866C21.2962 53.2168 21.3607 53.6695 21.4956 53.9927C21.9742 55.1383 21.4151 55.1004 37.0676 55.0488L51.1614 55.0024L51.6685 54.4344C52.6662 53.3175 52.7563 53.4857 46.6976 45.15C42.1201 38.8523 41.2353 37.5414 41.316 37.1782C41.3691 36.9391 41.4583 35.7596 41.514 34.5571C41.6737 31.1126 41.0286 28.6101 39.297 25.9566C37.3738 23.0096 34.4033 20.8526 30.9908 19.9252C29.2097 19.4413 25.8556 19.4114 24.1005 19.8637C21.6627 20.4921 19.4641 21.7144 17.7118 23.4157L16.7122 24.386V20.2616V16.137H37.6601H58.6079V45.2003ZM82.7718 16.4985C83.7295 16.9315 84.5909 17.734 85.0905 18.6584L85.4664 19.354V47.1771V75.0002L85.0855 75.7123C84.6003 76.6192 83.7121 77.3996 82.7466 77.7674C82.1538 77.9933 81.509 78.0451 79.7746 78.0062L77.5597 77.9564L78.9054 76.0436L80.2511 74.1307L80.2967 45.1339L80.3421 16.137L81.1659 16.1408C81.6189 16.1429 82.3416 16.3039 82.7718 16.4985ZM67.6477 46.4815V71.7832H64.8662H62.0847V46.4815V21.1799H64.8662H67.6477V46.4815ZM76.8612 46.4815V71.7832H73.9929H71.1245V46.4815V21.1799H73.9929H76.8612V46.4815ZM30.7064 23.5109C34.1384 24.6053 36.9237 27.6001 37.8313 31.1719C37.9761 31.7419 38.0947 32.431 38.0947 32.7034C38.0947 33.1802 38.0804 33.1883 37.7082 32.9277C37.1778 32.5559 36.3166 32.5882 35.7942 32.9993C35.5549 33.1877 33.5708 35.8091 31.3851 38.8248L27.4111 44.3079H26.65C23.6746 44.3079 19.9481 41.9928 18.2278 39.0757C17.1734 37.2877 16.8005 35.8547 16.8065 33.6133C16.8146 30.5333 17.6984 28.3746 19.8402 26.2047C21.3175 24.7079 23.2473 23.6242 25.2304 23.1776C26.8035 22.8234 28.9621 22.9548 30.7064 23.5109ZM42.1516 44.7722C44.7964 48.4227 46.9606 51.4551 46.9606 51.5106C46.9606 51.566 42.3759 51.6114 36.7723 51.6114C27.7637 51.6114 26.5956 51.581 26.6846 51.3492C26.7399 51.205 29.0261 47.9977 31.765 44.2221C36.7029 37.415 36.7474 37.3606 37.0436 37.7459C37.2081 37.9597 39.5066 41.1214 42.1516 44.7722ZM23.2815 62.3751C22.8149 62.7921 22.7176 63.005 22.7176 63.6101C22.7176 64.2162 22.8147 64.4281 23.2848 64.8483L23.8521 65.3553L37.5076 65.3087L51.163 65.2621L51.5825 64.7742C52.1981 64.0583 52.1607 63.0465 51.4938 62.3795L50.9857 61.8712H37.4155H23.8453L23.2815 62.3751ZM23.2815 69.5048C22.8149 69.9218 22.7176 70.1347 22.7176 70.7398C22.7176 71.345 22.8149 71.5578 23.2815 71.9748L23.8453 72.4788H26.9689H30.0924L30.6562 71.9748C31.1228 71.5578 31.2201 71.345 31.2201 70.7398C31.2201 70.1347 31.1228 69.9218 30.6562 69.5048L30.0924 69.0009H26.9689H23.8453L23.2815 69.5048ZM36.5492 69.2436C35.5236 69.8123 35.3875 71.0227 36.252 71.8875C37.1196 72.7554 38.3582 72.6128 38.89 71.5841C39.7011 70.0148 38.0808 68.3945 36.5492 69.2436ZM44.426 69.2C43.9519 69.43 43.4838 70.2386 43.4838 70.8275C43.4838 71.1304 43.6967 71.5093 44.0856 71.8983L44.6874 72.5003L47.9256 72.4461L51.1635 72.3918L51.5828 71.9039C52.1981 71.1878 52.1605 70.176 51.4938 69.5092L50.9857 69.0009L47.8866 69.0127C46.1821 69.0191 44.6248 69.1033 44.426 69.2ZM75.0157 75.4784C74.9455 75.5981 74.3468 76.4587 73.6853 77.3913L72.4824 79.0867H69.3824H66.2825L65.0887 77.3913C64.4323 76.4587 63.8353 75.5981 63.762 75.4784C63.6564 75.3063 64.8252 75.2611 69.3861 75.2611C73.944 75.2611 75.1167 75.3063 75.0157 75.4784ZM70.7478 82.7086C70.716 82.7877 70.4568 83.4529 70.1717 84.1867C69.8377 85.0465 69.5583 85.5208 69.3861 85.5208C69.2138 85.5208 68.9344 85.0465 68.6005 84.1867C68.3154 83.4529 68.0562 82.7877 68.0244 82.7086C67.9924 82.6293 68.6052 82.5646 69.3861 82.5646C70.167 82.5646 70.7798 82.6293 70.7478 82.7086Z" fill="#44ABF4"/>
</svg>
