<svg width="84" height="89" viewBox="0 0 84 89" fill="none" xmlns="http://www.w3.org/2000/svg">
<path fill-rule="evenodd" clip-rule="evenodd" d="M64.9785 0.591016C64.5533 1.01689 64.3884 1.33743 64.3884 1.73828C64.3884 2.13913 64.5533 2.45967 64.9785 2.88555L65.5686 3.47656H69.0997H72.6308L64.0438 12.0786L55.4565 20.6809L51.9727 17.2066C48.494 13.7375 48.4878 13.7324 47.7196 13.7324H46.9503L30.9575 29.7681C19.8624 40.8927 14.9444 45.9369 14.8984 46.2383C14.7153 47.4417 15.4149 48.3242 16.5523 48.3242H17.2639L32.4934 33.0743L47.7229 17.8245L51.1527 21.2413C54.5814 24.657 55.0721 25.0203 55.9152 24.7684C56.1368 24.7022 60.5161 20.4526 65.6467 15.3247L74.9752 6.00142L74.9849 8.86749C74.9964 12.2139 75.1356 12.803 76.0269 13.2813C76.7632 13.6764 77.4096 13.5697 78.0273 12.9511L78.4463 12.5314V6.86273C78.4463 3.30708 78.3796 1.06922 78.2675 0.85958C77.8343 0.0488457 77.4398 0 71.3219 0H65.5686L64.9785 0.591016ZM63.5207 25.9141C62.4722 26.3888 61.6553 27.1956 61.1581 28.2471L60.7473 29.1162L60.7455 57.3198L60.7438 85.5234H55.8843H51.0248L51.0238 70.0962C51.0232 60.1207 50.9601 54.4428 50.8453 54.0289C50.546 52.9491 49.6254 51.7985 48.5904 51.2105L47.6405 50.6709H42.0868C36.72 50.6709 36.5095 50.6836 35.8296 51.0481C34.8782 51.5581 34.0488 52.4219 33.6042 53.3652C33.238 54.1422 33.2352 54.2528 33.1876 69.8354L33.1399 85.5234H28.3823H23.6247L23.5705 77.2231C23.5169 68.9863 23.5134 68.9162 23.1175 68.0537C22.5698 66.8607 21.6291 65.9466 20.5232 65.5322C19.6782 65.2154 19.1683 65.1855 14.603 65.1855C9.09647 65.1855 8.6067 65.2577 7.40953 66.2462C7.05687 66.5374 6.55356 67.1415 6.29115 67.5885L5.81405 68.4014L5.76441 76.9624L5.71478 85.5234H3.5431C0.686231 85.5234 0 85.8601 0 87.2617C0 87.989 0.252868 88.4208 0.864297 88.7375C1.31224 88.9694 6.10128 89 42 89C77.8987 89 82.6878 88.9694 83.1357 88.7375C83.7471 88.4208 84 87.989 84 87.2617C84 85.8716 83.3067 85.5234 80.5376 85.5234H78.4463L78.4445 57.3198L78.4428 29.1162L78.0357 28.2471C77.5197 27.146 76.8555 26.4808 75.7562 25.964C74.9047 25.5639 74.789 25.5562 69.595 25.5583C64.6458 25.5602 64.2508 25.5833 63.5207 25.9141ZM74.6578 29.317C74.9627 29.5934 74.9752 30.6982 74.9752 57.5641V85.5234H69.595H64.2149V57.5943C64.2149 31.8498 64.2373 29.6401 64.5021 29.3472C64.7671 29.0538 65.1588 29.0293 69.5648 29.0293C73.765 29.0293 74.3787 29.0639 74.6578 29.317ZM10.2964 51.0526C10.089 51.093 9.71797 51.3278 9.47204 51.5741C8.47185 52.5757 9.23844 54.4082 10.6574 54.4082C12.4841 54.4082 13.0337 51.8783 11.3594 51.1776C11.0361 51.0424 10.7494 50.9422 10.7225 50.9553C10.6956 50.9683 10.5038 51.0121 10.2964 51.0526ZM47.1521 54.4385L47.5537 54.8165V70.1699V85.5234H42.0868H36.6198V70.2187V54.9139L37.0459 54.4873L37.4718 54.0605H42.1111C46.6354 54.0605 46.7602 54.0699 47.1521 54.4385ZM19.5729 68.9328L19.9587 69.2032V77.3634V85.5234H14.5785H9.19835V77.4404C9.19835 69.5891 9.20824 69.3475 9.54545 69.0098C9.87521 68.6795 10.1239 68.6621 14.5398 68.6621C18.4652 68.6621 19.2471 68.7042 19.5729 68.9328Z" fill="#DC2D3C"/>
</svg>
