<svg width="89" height="89" viewBox="0 0 89 89" fill="none" xmlns="http://www.w3.org/2000/svg">
<path fill-rule="evenodd" clip-rule="evenodd" d="M12.8848 0.278151C11.7597 0.667713 10.982 1.22676 10.3458 2.10323C9.41972 3.37918 9.318 4.08129 9.318 9.19549V13.8421L6.57485 13.9029C4.24257 13.9545 3.71292 14.0182 3.03906 14.3276C1.88224 14.859 1.03717 15.676 0.48593 16.7962L0 17.7839V44.1198V70.4557L0.366798 71.2468C0.902888 72.4033 1.72096 73.2455 2.84208 73.795L3.8317 74.28L19.8116 74.3269L35.7916 74.374V76.4394V78.5049L33.4839 78.5654C31.3728 78.6206 31.0911 78.6676 30.1792 79.1145C28.9825 79.701 28.0813 80.6997 27.6071 81.9649C27.3207 82.7289 27.2573 83.3204 27.2573 85.2298C27.2573 87.789 27.3963 88.3305 28.1534 88.7213C28.8795 89.0961 60.1293 89.0914 60.856 88.7164C61.6483 88.3074 61.7831 87.7127 61.7122 84.9383C61.6594 82.8752 61.5864 82.3151 61.2853 81.6591C60.7558 80.5059 59.9367 79.6614 58.8135 79.1109C57.9101 78.6681 57.6227 78.6206 55.5161 78.5654L53.2084 78.5049V76.4394V74.374L69.1884 74.3269L85.1683 74.28L86.1579 73.795C87.279 73.2455 88.0971 72.4033 88.6332 71.2468L89 70.4557V44.1198V17.7839L88.5141 16.7962C87.9628 15.676 87.1178 14.859 85.9609 14.3276C85.2874 14.0183 84.7574 13.9545 82.4349 13.9031L79.7015 13.8424L79.6482 8.85982L79.5949 3.87721L79.109 2.88949C78.5584 1.77052 77.7146 0.954018 76.5559 0.418957L75.7632 0.0528622L44.7613 0.0140972C15.6828 -0.0222341 13.705 -0.00589372 12.8848 0.278151ZM75.3025 3.69034C76.1403 4.12267 76.1986 4.49224 76.1986 9.36115V13.8727H44.5H12.8014L12.8075 9.30953C12.8141 4.43626 12.8599 4.14526 13.6914 3.6853C14.3367 3.32824 74.6107 3.33328 75.3025 3.69034ZM19.6131 7.16198C18.1032 7.99725 18.7349 10.396 20.4648 10.396C21.3473 10.396 22.2065 9.54681 22.2065 8.67451C22.2065 7.36936 20.7614 6.52662 19.6131 7.16198ZM27.2765 7.16198C25.7666 7.99725 26.3983 10.396 28.1282 10.396C29.0107 10.396 29.8699 9.54681 29.8699 8.67451C29.8699 7.36936 28.4248 6.52662 27.2765 7.16198ZM34.9399 7.16198C33.43 7.99725 34.0617 10.396 35.7916 10.396C36.6741 10.396 37.5333 9.54681 37.5333 8.67451C37.5333 7.36936 36.0882 6.52662 34.9399 7.16198ZM48.8734 7.16198C47.7061 7.8076 47.7444 9.64624 48.9364 10.1883C49.5897 10.4853 68.6706 10.4853 69.3239 10.1883C69.823 9.96123 70.2769 9.23234 70.2769 8.65765C70.2769 8.08295 69.823 7.35407 69.3239 7.12704C68.6281 6.81066 49.4492 6.84334 48.8734 7.16198ZM9.318 24.0507C9.318 31.3192 9.33908 31.4937 10.2711 31.9175C10.8716 32.1908 11.3197 32.1797 11.9053 31.8775C12.7777 31.4273 12.8014 31.2203 12.8014 24.0338V17.3494H44.5H76.1986V38.2094V59.0695H71.7573H67.316V56.0187C67.316 51.8472 67.272 51.772 64.733 51.6039L63.282 51.5077L62.9613 50.5972C62.7851 50.0962 62.4379 49.2442 62.1901 48.7036L61.7392 47.7206L62.6123 46.7993C63.5932 45.7641 63.8945 45.144 63.7456 44.4671C63.6812 44.1747 62.5106 42.8809 60.5487 40.9338C57.6353 38.0422 57.4149 37.8618 56.7963 37.8618C56.2294 37.8618 55.9881 38.0064 55.0389 38.9162L53.9387 39.9707L53.0125 39.5022C52.5032 39.2446 51.6139 38.8568 51.0364 38.6404L49.9863 38.2468L49.9363 36.7677C49.8914 35.4415 49.8395 35.2419 49.4335 34.8369L48.9808 34.3851H44.5H40.0192L39.5665 34.8369C39.1605 35.2419 39.1086 35.4415 39.0637 36.7677L39.0137 38.2468L37.9636 38.6404C37.3861 38.8568 36.4968 39.2446 35.9875 39.5022L35.0613 39.9707L33.9611 38.9162C33.0119 38.0064 32.7706 37.8618 32.2037 37.8618C31.5851 37.8618 31.3647 38.0422 28.4513 40.9338C26.4894 42.8809 25.3188 44.1747 25.2544 44.4671C25.1051 45.1454 25.4072 45.7644 26.3971 46.8092L27.2796 47.7406L26.9461 48.4072C26.7625 48.774 26.3924 49.6411 26.1237 50.3344L25.6348 51.5947H24.3642C21.855 51.5947 21.684 51.877 21.684 56.0187V59.0695H17.2427H12.8014V52.3851C12.8014 45.1986 12.7777 44.9916 11.9053 44.5413C11.0036 44.076 9.91244 44.3986 9.52614 45.2448C9.37635 45.573 9.318 47.5728 9.318 52.3851V59.0695H6.35714H3.39628L3.40238 38.8613C3.40743 22.4213 3.45167 18.5756 3.63942 18.2376C4.05499 17.4891 4.54022 17.362 7.01027 17.3554L9.318 17.3494V24.0507ZM84.6507 17.5571C85.6501 18.0115 85.6037 16.974 85.6037 38.8961V59.0695H82.6429H79.682V38.2094V17.3494H81.938C83.3162 17.3494 84.3717 17.4302 84.6507 17.5571ZM18.5681 22.4594C17.7439 22.9152 17.4693 23.9168 17.9263 24.799C18.3232 25.5649 18.8508 25.6934 21.6023 25.6934H24.1167L24.6816 25.1896C25.149 24.7728 25.2466 24.56 25.2466 23.955C25.2466 23.3501 25.149 23.1373 24.6816 22.7205L24.1167 22.2167L21.5505 22.2228C19.7563 22.2271 18.8591 22.2982 18.5681 22.4594ZM30.3532 22.4877C29.7621 22.8079 29.5215 23.243 29.5215 23.9919C29.5215 24.7037 29.8713 25.2322 30.5204 25.5004C30.8766 25.6477 33.3356 25.6899 39.5122 25.6548L48.0137 25.6065L48.4339 25.1187C49.0507 24.403 49.0132 23.3916 48.3451 22.7248L47.836 22.2167L39.3319 22.2237C32.1666 22.2296 30.7531 22.2711 30.3532 22.4877ZM54.1414 22.3891C53.1706 22.7801 52.892 24.2636 53.6287 25.1187L54.049 25.6065L61.94 25.6551C67.6715 25.6906 69.9658 25.6482 70.3234 25.5003C70.8499 25.2826 71.3219 24.5522 71.3219 23.955C71.3219 23.3803 70.868 22.6515 70.3689 22.4244C69.8249 22.1771 54.7493 22.1442 54.1414 22.3891ZM18.5681 30.8034C17.4008 31.449 17.4391 33.2877 18.6311 33.8297C19.3468 34.1551 29.7276 34.1198 30.3671 33.7897C31.5262 33.1914 31.5262 31.4068 30.3671 30.8085C29.6915 30.4597 19.1975 30.4552 18.5681 30.8034ZM56.9281 30.7332C55.9573 31.1241 55.6786 32.6076 56.4154 33.4627L56.8355 33.9505L63.3309 34.0002C70.3513 34.0539 70.6169 34.0247 71.0689 33.1524C71.3764 32.559 71.3886 32.1138 71.1138 31.512C70.6909 30.5856 70.485 30.5599 63.6237 30.5717C60.1464 30.5778 57.1335 30.6504 56.9281 30.7332ZM10.208 36.7138C8.69814 37.549 9.32985 39.9478 11.0597 39.9478C11.9422 39.9478 12.8014 39.0986 12.8014 38.2263C12.8014 36.9212 11.3563 36.0784 10.208 36.7138ZM46.4568 39.0868C46.5756 40.7425 46.8166 40.9715 49.2794 41.7659C50.3582 42.1141 51.7705 42.7077 52.418 43.0855C54.0998 44.0664 54.6911 44.0364 55.8852 42.9092L56.7994 42.0461L58.1767 43.429L59.5542 44.8118L58.84 45.5524C58.0353 46.3864 57.7368 46.8885 57.7368 47.407C57.7368 47.602 58.1224 48.4872 58.5937 49.3739C59.065 50.2607 59.6615 51.6903 59.9193 52.5507C60.5625 54.6974 60.9626 55.0713 62.6163 55.0713H63.8327V57.0704V59.0695H58.4389H53.0452L53.145 57.7223C53.4455 53.6718 50.8282 49.8782 46.9502 48.7426C46.4066 48.5835 45.3644 48.4656 44.5 48.4656C43.6356 48.4656 42.5934 48.5835 42.0498 48.7426C38.1718 49.8782 35.5545 53.6718 35.855 57.7223L35.9548 59.0695H30.5611H25.1673V57.0704V55.0713H26.3837C28.0374 55.0713 28.4375 54.6974 29.0807 52.5507C29.3385 51.6903 29.935 50.2607 30.4063 49.3739C30.8776 48.4872 31.2632 47.602 31.2632 47.407C31.2632 46.8885 30.9647 46.3864 30.16 45.5524L29.4458 44.8118L30.8233 43.429L32.2006 42.0461L33.1148 42.9092C34.3108 44.0381 34.9005 44.0668 36.6157 43.0797C37.2776 42.699 38.6756 42.1085 39.7226 41.7676C42.1651 40.9722 42.4257 40.7253 42.5425 39.0962L42.631 37.8618H44.5H46.369L46.4568 39.0868ZM46.6806 52.3521C48.9108 53.3886 50.1878 56.0957 49.5416 58.4176L49.3603 59.0695H44.5H39.6397L39.4584 58.4176C38.8122 56.0957 40.0892 53.3886 42.3194 52.3521C43.5456 51.7822 45.4544 51.7822 46.6806 52.3521ZM85.6037 66.0316C85.6037 69.8253 85.5079 70.2928 84.6507 70.6825C84.3009 70.8416 74.904 70.8902 44.5 70.8902C14.096 70.8902 4.69906 70.8416 4.34933 70.6825C3.49207 70.2928 3.39628 69.8253 3.39628 66.0316V62.5462H44.5H85.6037V66.0316ZM49.7251 76.4529V78.5389H44.5H39.275V76.4529V74.3669H44.5H49.7251V76.4529ZM57.3063 82.2234C57.9549 82.5182 58.2593 83.2266 58.2593 84.4406V85.4923H44.5H30.7407L30.7468 84.4058C30.7538 83.2069 31.0007 82.6067 31.6307 82.2583C32.2082 81.9386 56.6075 81.9056 57.3063 82.2234Z" fill="#BBD46A"/>
</svg>
